<svg width="64" height="59" fill="none" xmlns="http://www.w3.org/2000/svg"><path fill-rule="evenodd" clip-rule="evenodd" d="M51.696 42.102c-.914 0-1.761.265-2.499.694a4.879 4.879 0 00-2.501-.694c-2.757 0-5 2.243-5 5s2.243 5 5 5a4.88 4.88 0 002.501-.695 4.936 4.936 0 002.499.695c2.757 0 5-2.243 5-5s-2.243-5-5-5zm-8 5c0-1.654 1.346-3 3-3 .309 0 .61.055.901.15a4.966 4.966 0 00-.901 2.85c0 1.06.336 2.039.901 2.85a2.87 2.87 0 01-.901.15c-1.654 0-3-1.346-3-3zm5 0c0 1.654 1.346 3 3 3 1.655 0 3-1.346 3-3s-1.346-3-3-3-3 1.346-3 3z" fill="#009BDC"/><g clip-path="url(#clip0)" fill="#0A25A5"><path d="M19 50h-3a1 1 0 100 2h3a1 1 0 100-2zM26 50h-3a1 1 0 100 2h3a1 1 0 100-2zM33 50h-3a1 1 0 100 2h3a1 1 0 100-2z"/><path fill-rule="evenodd" clip-rule="evenodd" d="M58.564 24.001h-1.27L49.736 7.385a3.972 3.972 0 00-2.215-2.114 3.977 3.977 0 00-3.061.072L2.386 23.935A3.97 3.97 0 00.273 26.15a3.98 3.98 0 00.072 3.062l9.44 21.297c.052.118.13.215.217.301v3.213c0 2.38 2.361 3.979 4.999 3.979h43C60.655 58 63 56.38 63 54V29c0-2.446-1.896-4.999-4.436-4.999zm-4.562 0H26.717l23.674-10.349 4.708 10.349h-1.097zM3.195 25.764a1.984 1.984 0 00-1.057 1.107 1.994 1.994 0 00.034 1.53l1.59 3.586 6.239-2.674v-.131C10.001 26.736 12.476 24 15 24h6.722l27.839-12.17-1.65-3.628A1.993 1.993 0 0046.8 7.136a1.994 1.994 0 00-1.53.036L3.195 25.764zm1.378 8.052l5.429-2.327v14.574L4.573 33.816zm56.429-4.633c0-1.433-1.22-3.214-3.001-3.183h-43c-1.001 0-2.999 1-2.999 3v25.021c0 1.786 1.685 1.979 2.41 1.979h44.152c.573 0 2.438-.142 2.438-1.979V29.183z"/></g><defs><clipPath id="clip0"><path fill="#fff" d="M0 5h64v54H0z"/></clipPath></defs></svg>